<svg xmlns="http://www.w3.org/2000/svg" width="250" height="250" fill="none" viewBox="0 0 250 250">
<!-- SVG created with Arrow, by QuiverAI (https://quiver.ai) -->
  <path d="m5.22 202.2c0.87-14.72 4.66-25.07 10.5-27.98-2.8 2.74-3.51 4.45-4.01 5.85 7.65-15.88 15.57-20.77 22.27-23.9-7.76 5.86-13.06 12.19-15.92 19.11l1.07-0.5c9.03-13.9 20.64-21.03 29.05-22.79-5.46 3.51-11.25 8.78-13.2 13.51 10.03-9.33 19.89-11.47 26.76-10.85l-8.52 3.34 2 2.14c7.93-5.01 16.56-6.21 24.54-2.41-3.62-0.96-6.31-1.4-9.28-0.96 8.53 0.22 15.73 4.07 19.93 7.97 16.37 14.5 27.4 28.24 51.71 30.49 6.87 0.62 12.06 0.51 17.04-0.05l-16.22-1.87c13.18 0.9 24.79-0.11 36.29-5.06-5.14 3.57-8.44 4.4-11.18 5.12 9.2-2.53 15.9-6.43 23.04-13.24 9.53-4.35 12.06-12.5 11.67-22.4l4.65-9.69 2.27-13.01 31.24-67.9-0.44-3.68-1.39-2.63c2.05-1.82 6-9.59 5.13-12.39s-3.19-1.93-4.06-0.48c-2.91 4.29-1.84 9.88-1.23 12.56l-3.08 2.52-34.8 69.91c-4.93 4.84-8.77 11.23-9.43 17.14-6.54 3.13-9.45 9.1-10.27 14.96-2.12 7.13-10.64 8.89-18 2.39 3.84 8.51 8.54 10.71 12.8 11.97-5.36 2.36-12.06 3.37-17.9 2.87 2.11-1.6 5.19-2.6 6.79-3.43-8.76 2.8-17.23 0.93-25.43-4.39-17.7-11.32-30.72-32.25-57.32-45.62l-5.09-1.39 1.76 1.55c-7.82-3.02-18.58-4.52-30.25-2.05l-4.7 1.94c8.92-2.3 19.74-1.61 32.7 5.08-10.88-4.63-21.76-6.8-33.99-3.67-6.21 1.87-11.67 5.99-17.61 12.38l2.69-1.2-5.74 6.51c8.36-7.24 16.23-10.2 22.82-10.7-10.25 3.46-17.79 9.05-22.82 13.45l0.66-2.47-1.9 0.73c-0.77-0.28-5.04 0.68-6.37 2.44l-1.71 5.7 3.31 1.14c2.97-1.14 5.67-2.97 6.01-8.24 7.76-7.83 17.07-12.08 27.1-11.69-13.02 4.22-24.21 11.96-32.74 23.17-7.03 8.62-10.98 23.57-11.2 40.7z" fill="#000"/>
  <path d="m234.2 65.12 5.52 2.53-29.98 65.16-4.7-1.99 29.16-65.7z" fill="url(#paint0_linear_133_1370)"/>
  <path d="m232.9 70.93 4.1 1.99" stroke="#6E5536" stroke-miterlimit="10" stroke-width="1.08"/>
  <path d="m232 72.64 4.21 2.14" stroke="#6E5536" stroke-miterlimit="10" stroke-width="1.08"/>
  <path d="m193.9 151c3.25-0.89 5.01 2.84 7.33 5.15 1.49 7.61-2.94 16.66-12.41 19.35 5.14-2.3 8.92-7.38 10.14-12.07l-5.99 6.67 2-6.89-6.81 5.97 2-6.45-4.7 4.4c-0.71-6.97 2.7-13.46 8.44-16.13z" fill="#B3B3B3"/>
  <path d="m33.92 119c-1.9 0.61-3.84 3.9-3.23 5.89l3.35 4.12c1.12 1.2 2.78 1.04 3.6-0.21l3.3-5.17c0.28-1.55-1.83-2.45-3.73-1.55-0.76 0.33-1.26 1.05-1.43 1.55 0.34-1.71 0-5.01-1.86-4.63z" fill="#F0A4B3"/>
  <path d="m22.94 128.9c0.87-2.2 2.53-3.4 5-2.63l5.2 2.19c1.61 0.88 1.72 2.13 0.85 3.22l-4.65 4.84c-2-0.39-2.33-2.53-1.78-4.13-1.39 0.5-4.35-1.26-4.62-3.49z" fill="#F0A4B3"/>
  <path d="m27.97 137.7 2.27-4.96c0.87-1.55 2.87-1.82 3.99-1.05l4.48 4.29c0.39 1.94-0.89 3.19-3.11 3.02-1.28-0.16-2.49-1.58-2.66-2.36-0.71 1.5-3.79 4.07-4.97 1.06z" fill="#F0A4B3"/>
  <path d="m36.28 128.2 3.57-4.45c1.17-1.33 4.47-1.6 5.81-0.61l-0.39 4.5c-0.39 1.88-3.14 2.79-4.64 2.68-1.71-0.16-3.56-0.38-4.35-2.12z" fill="#F0A4B3"/>
  <path d="m36.17 133.1 2.06-2.21c1.01-1.1 3.01-1.21 4.13-0.32l2.86 2.42c0.92 0.82-0.41 4.06-2.07 4.9-1.39 0.73-3.81-0.11-4.68-1.5l-2.3-3.29z" fill="#F0A4B3"/>
  <path d="m130.8 142.5c1.9 0.61 2.72 3.52 1.79 5.82l-2.64 3.79c-1.12 1.2-2.78 1.04-3.6-0.22l-6.7-5c-0.28-1.55 1.22-2.81 3.12-2.2l4.92 3.18c-0.65-1.71 0.63-6.17 3.11-5.37z" fill="#F0A4B3"/>
  <path d="m117.6 151.2c0.44-2.31 1.61-3.8 4.19-3.42l4.43 1.33c1.6 0.61 2.2 1.98 1.33 3.47l-4.8 5.53c-2 0-3.12-1.09-3.12-2.8-1.38-0.16-2.4-1.44-2.03-4.11z" fill="#F0A4B3"/>
  <path d="m121.3 162.9-1.28-2.12c-0.77-1.65 0.35-4.34 2.11-5.11l4.13-0.84c1.66-0.28 2.53 0.98 2.14 2.63l-1.5 5.07c-1.12 1.82-4.2 2.21-5.6 0.37z" fill="#F0A4B3"/>
  <path d="m128.8 153.5 4.54-4.25c1.6-1.33 4.46-1.17 5.58 0.08l0.87 2.97c-0.71 2.58-3.68 3.95-5.84 3.45-2.11-0.49-4.22-0.6-5.15-2.25z" fill="#F0A4B3"/>
  <path d="m129.6 155.1 4.16 3.09c1.34 1.25 1.28 4.71-0.11 6.41l-2.86 0.45c-2.11-0.45-3.77-3.9-3.27-6.16 0.5-1.76 0.55-3.25 2.08-3.79z" fill="#F0A4B3"/>
  <path d="m91.8 152.2c-1.71 1.26-2.58 4.82-1.98 6.53l1.86 3.45c0.87 1.43 2.53 1.43 3.65 0.17l5.79-1.25c1.12-1.26 1.29-2.04 0.69-2.95-1.39-0.96-4.36 0.86-5.75 1.8-1.02-0.89 0.37-3.79 0.37-4.84 0.22-1.99-1.73-4.4-4.63-2.91z" fill="#F0A4B3"/>
  <path d="m81.71 157.8c0.22-1.71 0.88-2.33 2-2.22l3.57 1.15c1.9 0.67 3.34 2.37 3.18 3.96-0.22 1.42-1.56 2.48-3.11 2.32l-3.62-0.4c-1.55-0.39-2.37-2.52-2.02-4.81z" fill="#F0A4B3"/>
  <path d="m81.82 169.8c-0.33-2.42 1.67-5.38 4.09-5.77l2.8-0.11c1.72-0.17 2.48 1.38 1.93 3.2l-0.93 3.57c-0.92 1.6-2.77 2.15-3.8 0.6l-0.39-2.03c-0.76 0.82-2.87 1.77-3.7 0.54z" fill="#F0A4B3"/>
  <path d="m91.74 167.2c0-2.42 1.49-3.96 3.35-3.96l4.1 1.2c2.11 0.62 2.55 2.33 1.43 3.82l-3.56 4.56-1.86-1.15-0.28 1.31c-1.71 0-3.21-2.74-3.18-5.78z" fill="#F0A4B3"/>
  <path d="m63.69 137.9c-1.07 0.78-1.57 2.82-0.91 4.25l1.95 2.85c0.87 1.1 2.15 0.99 3.02-0.11l2.32-1.99c0.55-1.1-0.42-2.24-1.81-2.35l-2.37 0.55c0.28-1.25-0.16-3.83-2.2-3.2z" fill="#F0A4B3"/>
  <path d="m56.71 142.9c0.5-1.6 1.42-2.38 3.08-1.93l2.97 1.37c1.12 0.72 1.45 1.92 0.58 2.92l-4 2.95c-1.39-0.16-2.16-1.26-1.99-2.57-0.82-0.27-1.04-1.17-0.64-2.74z" fill="#F0A4B3"/>
  <path d="m57.47 150 1.95-3.02c0.76-1.04 2.31-1.2 3.18-0.42l2.42 2.64c0.5 1.2-0.37 2.51-1.76 2.56l-2.86-0.89-0.76 0.78c-1.28 0.11-2.4-0.44-2.17-1.65z" fill="#F0A4B3"/>
  <path d="m63.63 145.9 2.12-2.2c0.86-0.88 2.36-0.99 3.38-0.32l1.49 0.96c0.93 0.73 0 2.72-1.6 3.28l-2.53 0.11c-1.28-0.11-2.25-0.67-2.86-1.83z" fill="#F0A4B3"/>
  <path d="m65.95 147.3 2.37 1.43c1.12 0.78 0.84 3.08-0.18 4.28l-1.85-0.11c-1.39-0.56-2.37-2.64-1.98-4 0.34-1.02 0.61-1.6 1.64-1.6z" fill="#F0A4B3"/>
  <path d="m43.79 154.8c-1.71 0.9-2.58 3.1-1.82 4.59l2.86 3.45c1.12 1.1 2.78 0.93 3.65-0.33l3.14-4.61c0.5-1.75-1.45-3.68-3.11-3.4-1.12 0.22-2.19 1.65-2.47 2.8-0.44-1.1-1.1-2.25-2.25-2.5z" fill="#F0A4B3"/>
  <path d="m37.95 165.3c0.39-1.93 2.19-3.37 4.09-3.53l2.97 0.11c1.6 0.16 2.31 1.58 1.66 3.08l-2.58 4.4c-1.12 0.77-3.39 0.11-4.26-1.71l-0.44-1.44-1.44-0.91z" fill="#F0A4B3"/>
  <path d="m45.66 166.1 0.55-1.1c0.6-1.42 2.5-1.98 3.77-1.08l5.25 2.85c0.49 1.15-1 2.65-2.9 2.54l-2.86-1.15-0.39 2.91c-1.33 1.25-3.7-0.45-3.42-4.97z" fill="#F0A4B3"/>
  <path d="m49.11 161.9 2.27-5.16c0.87-1.2 2.67-0.7 3.64 1.01l1.71 3.34c0.34 1.31-0.94 2.74-2.84 2.85l-3.25-0.34c-1.12-0.17-1.88-0.89-1.53-1.7z" fill="#F0A4B3"/>
  <path d="m33.98 173.9c-2.96 2.18-3.93 5.8-3.22 8.38 0.66 1.43 2.43 1.32 3.55-0.11l0.76-1.82 0.66 1.82c1.39 0.56 2.61-2.24 2.01-5.2-0.56-2.26-1.9-3.57-3.76-3.07z" fill="#F0A4B3"/>
  <path d="m134.7 171.6c-2.69-1.49-7.01-1.33-8.61 0.98-1.28 2.2 0.21 5.05 2.79 5.78 2.7 0.67 6.1-1.26 6.86-4.17 0.23-1.14-0.16-2.09-1.04-2.59z" fill="#F0A4B3"/>
  <path d="m110.9 185.9c-1.28-0.5-3.18-0.33-6.48-0.5-0.77 0.28 0.67 2.7 2.67 3.7 1.61 0.83 2.94 0.55 3.6-0.28l0.21-1.42v-1.5z" fill="#F0A4B3"/>
  <path d="m126.6 197.7c-1.44 1.05-1.44 2.31-0.32 3.2 1.6 1.15 3.92 0.38 7.32-1.82-1.6-1.55-4.57-2.44-7-1.38z" fill="#F0A4B3"/>
  <path d="m170.2 198c1.77 1.26 4.79 0.82 4.74-0.39 0.55-0.89 0.66-1.88 0.16-2.55-1.71-0.73-4.19 0.27-6.09 2.47l1.19 0.47z" fill="#F0A4B3"/>
  <path d="m156.3 192.3c-0.16-1.55 0.76-2.38 1.78-2.22 1.28 0.28 1.73 1.71 1.23 3.31-1.12 0.44-2.34 0.28-3.01-1.09z" fill="#F0A4B3"/>
  <path d="m144.8 166.9c1.28 1.93 3.28 3.14 7.6 2.81 1.28-0.78 1.39-1.98 0.52-2.65l-1.71 0.28c-1.61-0.61-4.03-0.72-6.41-0.44z" fill="#F0A4B3"/>
  <path d="m102.3 122.2c-1.39 0.99-1.78 4.29-0.91 5.6 1.07 1.2 3.65 1.31 6.18 0.16-0.65-2.42-2.92-5.27-5.27-5.76z" fill="#F0A4B3"/>
  <path d="m109.9 132.9c-1.77 0-2.27 0.77-1.77 2.2l2.59 3.09c1.12-0.9 1.51-4.52-0.82-5.29z" fill="#F0A4B3"/>
  <path d="m102.2 134.4c-0.92 0.77-0.05 2.14 1.23 2.3l2.69-0.33c-0.49-1.2-2.15-2.41-3.92-1.97z" fill="#F0A4B3"/>
  <path d="m104.7 151.1 0.28 2.08c0.39 1.37 2.34 2.14 4.25 1.25 0.6-0.55-0.47-2.8-2.08-3.41l-2.45 0.08z" fill="#F0A4B3"/>
  <path d="m118.1 177.9 4.75 5.17c-2.69-0.5-5.66-3.35-5.22-5.17h0.47z" fill="#CD7685"/>
  <path d="m81.43 137.3c-1.12 1.01-0.79 3.53 0.87 4.85 1.61 1.15 3.72 1.26 4.84 0.43 0.39-2.31-1-4.88-5.71-5.28z" fill="#F0A4B3"/>
  <path d="m70.35 125.1c1.49-2.21 3.86-3.03 6.83-2.48 1.71 0.17 0.95 4.39 0.18 6.28-1.02 1.25-3.34 1.36-4.62 0.1l-2.39-3.9z" fill="#F0A4B3"/>
  <path d="m51.33 115.4c-0.66 0.9-0.49 2.33 0.9 2.94 1.95 0.95 4.98 0.33 6.47-0.72-0.92-1.93-3.24-3.03-7.37-2.22z" fill="#F0A4B3"/>
  <path d="m6.99 168.1c0.33-1.26 1.83-1.75 4.26-1.53 0.44 0.17-0.11 2.05-1.5 3.05-1.17 0.89-2.24 0.78-2.9 0.12l0.14-1.64z" fill="#F0A4B3"/>
  <path d="m9.05 177.9c1.02-1.44 3.13-2.22 6.21-1.72 1.39 0.5 1.67 1.93 0.55 3.58l-2.7 2.8c-1.6 0.56-3.5-0.16-4.37-1.98l0.31-2.68z" fill="#F0A4B3"/>
  <path d="m13.92 189.6c0.34-1.33 1.1-1.88 1.86-1.88 1.28 0.44 1.39 2.37 0.84 4.19-0.71 1.26-1.78 1.37-2.9 0.27-0.33-0.67-0.33-1.56 0.2-2.58z" fill="#F0A4B3"/>
  <path d="m9.22 145.4c0.92-1.54 3.03-2.1 5.51-1.71 1.02 0.28 0.58 2.48-1.03 3.58s-3.37 1.32-4.49 0.43c-0.66-0.55-0.6-1.43 0.01-2.3z" fill="#F0A4B3"/>
  <defs>
    <linearGradient id="paint0_linear_133_1370" x1="231.5" x2="210.3" y1="64.82" y2="133.2" gradientUnits="userSpaceOnUse">
      <stop stop-color="#301800" offset="0"/>
      <stop stop-color="#DCC696" offset=".5052"/>
      <stop stop-color="#7C4D1F" offset="1"/>
    </linearGradient>
  </defs>
</svg>