<svg xmlns="http://www.w3.org/2000/svg" width="250" height="250" viewBox="0 0 250 250">
<!-- SVG created with Arrow, by QuiverAI (https://quiver.ai) -->
  <path d="m190.7 52.69c-2.75 0.22-5.77 2.17-8.37 4.11-5.45 3.91-8.3 11.07-6.53 14.31 0.78 1.5 1.56 2.67 2.9 3l1.47-0.39c1.6-0.15 3.13-0.49 4.53-0.81 0.47-5.95 3.62-8.48 9.47-9.85 3.94-0.97 7.06 0.7 8.9 2.43l-0.96-1.56c2.64 0.83 4.88 3.49 5.62 5.59 0-2.44-0.95-4.35-2.16-5.76 2.6 1.73 3.9 4.5 4.25 6.15 0.36-2.19-0.74-4.99-1.95-6.64 2 1.49 3 4.34 3.24 6 0.64-1.46 0.51-4.06-0.12-5.55 0.88 0.6 1.23 3.09 1.39 4.39 0.24-2.62-1.11-6.14-3.51-8.48-4.89-4.22-9.78-6.32-15.23-5.95l-1.07-0.37-1.87-0.62z" fill="#2B2928"/>
  <path d="m183.2 55.89c4.65-2.74 8.79-3.67 13.68-2.77s10.18 3.67 12.84 7.11c-3.65-3.75-8.82-6.09-13.59-6.01-5.01-0.24-8.94 1.49-12.93 1.67z" fill="#2B2928"/>
  <path d="m165.3 79.33c14.23-4.06 27.13-5.22 40.67-5.38 5.77-0.07 12.96-0.04 19.86 1.01-6.46-0.5-12.86-0.35-19.27 0.15-7.82 0.62-15.73 1.93-23.73 3.2 11.28-1.34 24.13-2.73 33.86-2.2 4.24 0.32 10.01 1.6 13.08 2.87-4.71-1.2-9.48-1.87-14.29-2.08-11.28-0.42-23.05 1.23-33.35 3.03-4.24 0.6-9.43 0.25-16.83-0.6z" fill="#000"/>
  <path d="m182.9 87.04c4.32 2.49 10.25 3.77 14.84 3.27 3.32-0.35 9.09-2.61 11.17-4.26 1.48-1.17 1.87-3.8 1.24-5.26l-2.32-0.42-1.84 0.77-0.24 1.66-1.47 1.01-2.2 0.6-2.2 1.01-2.6 0.18-2.08-0.18-1.84-0.5-1.6-0.21 1.32 0.71 2 0.63 2.32 0.35 2.48-0.35 2-0.63-0.12 0.98c-4.59 2.59-13.07 2.59-18.86 0.64z" fill="#000"/>
  <path d="m230 80.82c-8.88-2.09-18.11-3.71-27.37-3.99l-15.09 0.9 15.09 0.18c8.16 0.85 18.21 2.2 27.37 2.91z" fill="#000"/>
  <path d="m245.8 165.3c-7.02-2.56-13.92-6.05-19.69-9.22l4.89 2.78 2.76-0.49-7.49-6.5 12.51 6.08-6.46-4.93 10.36 5.21-32.41-21.39-7.4-5.21 1.84 2.77-10.48-7.71 3.73 4.33-9.78-6.98-1.08-1.65 2.96 2.09-15.25-13.81 3.89 5.21-10.94-10.31-11.69-14.97-4.01-5.93-6.32-14.35c-0.88-1.49-1.84-1.49-3.44-0.5l-5.19 3.26-2.08-3.01c-0.64-0.63-1.36-0.52-2.24-0.38l-4.79 0.38c-1.24 0-1.6 0.53-1.88 1.37-0.36 0.84-1.16 1.05-2.12 0.84l-3.04-1.17c-1.48-0.43-1.96-0.08-2.76 0.96l-1.32-1.82c-2.32-0.18-5.08 3.34-8.72 10.32-4.09 6.15-13.85 19.11-21.85 26.56l-8.12 7.45 0.48-0.29-18.33 15.66-5.19 4.33-12.98 9.28-27.9 15.66 6.4-1.16-2.48 1.65 5.76-0.63-3.72 1.66 11.77-4.07 1.48 2.02 5.33-0.63-7.65 5.07-8.05 3.91-6.92 0.53c-2.96-0.95-5.52-0.32-7.11 2.02l-4.03 3.68v0.84l9.78-1.16 0.96 1.59-4.67 2.49 6.91 6.15c1.72 1.09 4.2 1.59 6.28 1.3l-1.08 1.1 10.25 1.73-5.28 3.52 3.64-0.46-1.32 1.49 5.28 1.16-2.56 1.59c5.77 1.8 11.53 2.08 17.3 0.5l12.96-2.63-2.32 1.17 17.13-4.78-1.84 0.7 6.91-2.19-1.08 0.84 12.49-4.9-10.37 4.06 1.84-1.38-13.99 3.87-11.77 1.28 1.08-1.56 6.24-2.1-2.4 0.22 10.65-2.71 19.76-7.93-22.6 7.93 25.44-11.44-25.44 9.76 18.84-9.76-21.64 7.45 6.91-4.93-2.07 0.28 3.52-4.22 9.76-4.32 3.52-2.85-10.85 5.65 14.45-8.72-1.72 1.09 13.37-8.72 13.12-6.98c-1.56 4.79-7.48 10.73-19.61 19.96l23.73-14.16-14.32 14.94 15.24-11.81-7.4 8.72 9.24-7.52 11.35-12.63 7.49-8.72-15.25 21.95 16.97-20.46 0.88-0.49 5.45-9.6c3.8 4.93 8.31 9.33 14.47 13.33l-2.2-2.78 11.36 10.86-7.92-8.01 10.36 8.72 14.43 8.72-16.15-12.34 22.6 14.7-10.37-5.93 9.77 6.98 17.12 7.94-17.56-10.44 19.88 4.33-7.92-5.53c6.8 2.02 13.59 4.86 21.36 7.06l-6.91-4.41 7.99 2.49 11.28 2.14zm-107.5-91.6 4.59-0.94 4.36 9.23 6.91 11.37 9.76 12.51-11.35-13 13.9 16.16-11.34-11.88 12.5 14.97-10.37-10.44-4.57-6.5-5.53-7.94-4.11-12.53-5.77 1.01 1.02-2.02zm-9.55-1.98 4.43-0.14 1.16 2.19-6.27 0.94 0.68-2.99zm-55.53 56.1 13.03-11.37 12.49-13.81 9.25-12.4 8.12-12.5 2.64 1.94 3.4-1.59-6.08 10.79 11.36-13.81 9.23-1.59 2.64 9.6-0.48-5.94 2.2 1.94 6.41 11.37 8.75 12.4 6.68 8.19-7.4-7.94-3.49-6.49-0.96 2.09-2.96-4.32-1.24 0.84-1.72-2.01-1.48 2.01-1.16 1.59-3.19-8.51 0.48 9.09-1.08 2.02-0.96 5.93-5.44 9.84-8.75 9.84 6.91-10.44-9.76 13 7.93-13.5-11.36 16.16-6.92 6.98 13.92-21.45-3.04 4.32 7.92-17.73-8.76 15.46 6.92-17.73-6.4 10.44 5.44-16.15-16.16 19.14-13.93 13.81 11.37-16.15-7.49 7.93 10.37-14.97-7.93 7.45 9.77-13-11.89 11.44 6.89-9.84-13.37 13.29 10.36-14.35-16.16 16.15 14.44-18.31-11.88 11.92 10.36-12.5-12.96 12.99 11.88-14.41-15.25 17.22-11.51 15.63zm-31.46 32.36 5.93-4.1 3.16-1.49-5.93 3.5 14.45-9.7-6.28 4.7 15.25-9.7 3.52-3.17-1.6 2.56 6.92-4.94-2.48 0.95 11.87-11.37 6.93-6.42-12.97 14.28-5.91 4.33-11.37 7.38-12.96 9.09-8.53 4.1zm123.7-45.96 6.92 5.53-3.52-3.52 8.76 7.45-12.16-9.46zm6.92 6.81 5.92 4.06-3.51-2.84-2.41-1.22zm5.24 3.85 10.37 7.93-6.92-4.93-3.45-3zm7.58 4.31 12.5 9.08-8.76-6.49-3.74-2.59zm9.01 6.88 6.91 4.33-6.91-4.33z" fill="#000"/>
</svg>